<svg xmlns="http://www.w3.org/2000/svg" width="17" height="17" viewBox="0 0 17 17">
  <path id="Icon_awesome-plus" data-name="Icon awesome-plus" d="M15.786,8.929H10.321V3.464A1.214,1.214,0,0,0,9.107,2.25H7.893A1.214,1.214,0,0,0,6.679,3.464V8.929H1.214A1.214,1.214,0,0,0,0,10.143v1.214a1.214,1.214,0,0,0,1.214,1.214H6.679v5.464A1.214,1.214,0,0,0,7.893,19.25H9.107a1.214,1.214,0,0,0,1.214-1.214V12.571h5.464A1.214,1.214,0,0,0,17,11.357V10.143A1.214,1.214,0,0,0,15.786,8.929Z" transform="translate(0 -2.25)" fill="#fff"/>
</svg>
